<?xml version="1.0" encoding="utf-8"?>
<!-- Generator: Adobe Illustrator 22.1.0, SVG Export Plug-In . SVG Version: 6.00 Build 0)  -->
<svg version="1.1" id="Calque_1" xmlns="http://www.w3.org/2000/svg" xmlns:xlink="http://www.w3.org/1999/xlink" x="0px" y="0px"
	 viewBox="0 0 500 500" style="enable-background:new 0 0 500 500;" xml:space="preserve">
<style type="text/css">
	.st0{fill:#D7A66C;}
	.st1{fill:#CECFD1;}
	.st2{opacity:0.15;fill:#231F20;}
	.st3{fill:#C19578;}
	.st4{fill:#F7CDA1;}
	.st5{fill:#F6F4F4;}
	.st6{opacity:0.2;fill:#231F20;}
	.st7{fill:#DEDEDE;}
	.st8{fill:#424242;}
	.st9{fill:#353535;}
	.st10{fill:#444444;}
	.st11{fill:#FFEDDC;}
	.st12{fill:#EAEAEA;}
	.st13{fill:#DDBF9A;}
	.st14{fill:#282928;}
	.st15{fill:#DC5921;}
	.st16{fill:#252A26;}
</style>
<g>
	<path class="st0" d="M216.5,500h-2.4c0.1-0.3,0.1-0.6,0.2-0.9c0.7,0,1.3-0.1,2-0.1C216.4,499.3,216.4,499.7,216.5,500z"/>
	<path class="st0" d="M270.6,309.2c-3.5,31.8-6.7,61.4-9.9,91.1c-1.8-0.1-3.7-0.2-5.5-0.3c14.4-51.6,7.7-103.2,2.6-155.1
		c1,41,23.8,75,33.1,113.2C284.4,342.2,277.8,326.4,270.6,309.2z"/>
	<path class="st0" d="M244.4,319.6c-12.3-52.1-11.7-104.2,0-156.3c-2.1,21.6-5.2,43.2-5.8,64.9c-0.6,18.5,1.6,37.1,2.8,55.6
		C242.2,295.7,243.4,307.7,244.4,319.6z"/>
	<path class="st0" d="M69.4,500h-3.9c-0.1-16.6,2.9-33.4,9.3-50.3c0.5-1.3,1.8-2.3,2.8-3.5C71.1,464.2,68.8,482.1,69.4,500z"/>
	<path class="st0" d="M96.1,500h-3.4v-4.9C94,496.5,95.2,498.1,96.1,500z"/>
	<path class="st0" d="M198.7,444c0,0,0,0.1,0.1,0.1c0,0-0.1,0-0.1,0C198.7,444.1,198.7,444,198.7,444z"/>
	<path class="st1" d="M139.5,421.3c2.1,13.2,14.6,22.4,27.9,20.3l165.9-26.1c13.2-2.1,22.4-14.6,20.3-27.9l-36.2-230.2
		c-2.1-13.2-14.6-22.4-27.9-20.3l-165.9,26.1c-13.2,2.1-22.4,14.6-20.3,27.9L139.5,421.3z"/>
	<path class="st2" d="M340.7,306l-0.9,107.8c-2,1.2-6.6,1.7-9.1,2.1l-78.3,11.6c0,0-111.7-2-112.1-2l-12.8-93.6L124.2,174l4.5-1
		l208.1,108.9L340.7,306z"/>
	<path class="st3" d="M137.6,301c-1,0.3-20.6,20-51.1,27.9l17.5-41L137.6,301z"/>
	<path class="st4" d="M59.6,324.9l26.9-38.6c0,0,2.2-2.9,5.6-5.5c3.5-2.8,7.9-4.2,12.4-4l59,2.3l-23.6,21.8l-29.4-2.6
		c0,0-4-0.3-6.8,7.9l-9.1,21c-3.2,7.4-1.4,16,4.6,21.4c1.1,1,2.3,1.8,3.6,2.4l-35,21.4l-9.7-25.1C58.3,347.3,52.7,334.9,59.6,324.9z
		"/>
	<path class="st5" d="M116.4,392.8c-0.4,13.4,10.2,24.7,23.6,25.2l167.8,5.4c13.4,0.4,24.7-10.2,25.2-23.6l7.4-232.9
		c0.4-13.4-10.2-24.7-23.6-25.2L149,136.3c-13.4-0.4-24.7,10.2-25.2,23.6L116.4,392.8z"/>
	<path class="st6" d="M285.4,143.8l1.9,53.5c0,0-1.1,7.2,6.5,7.7c7.5,0.6,46-6.6,46-6.6L285.4,143.8z"/>
	<path class="st7" d="M285.4,140.8l-0.8,49.2c0,0-1.1,7.2,6.5,7.7c7.5,0.6,48.7,0.8,48.7,0.8L285.4,140.8z"/>
	<path class="st3" d="M308,309.2c1.7,0.3,39.6,32.2,92.4,41.7l-40-69.6L308,309.2z"/>
	<path class="st4" d="M405.1,309.4l-28.7-32.2c0,0-2.4-2.4-5.7-4.4c-3.5-2.1-7.7-2.9-11.7-2.3l-53.4,8.6l23.8,17.3l26.4-5.6
		c0,0,3.6-0.7,7,6.4l10.6,18.1c3.7,6.4,3,14.4-1.9,19.9c-0.9,1-1.9,1.9-3,2.6l34.2,15.6l6-23.9C408.8,329.6,412.4,317.7,405.1,309.4
		z"/>
	<polygon class="st8" points="481.8,500 405.1,500 367.4,431.8 367.5,431.7 398.9,414.4 426.2,399.4 	"/>
	<polygon class="st9" points="446.1,500 405.2,500 367.5,431.7 398.9,414.4 	"/>
	<g>
		<g>
			<path class="st10" d="M170.3,213.2l-5.6-0.2l-0.6,15.9l-4.4-0.2l0.6-15.9l-5.5-0.2l0.1-3.6l15.5,0.6L170.3,213.2z"/>
			<path class="st10" d="M179.3,229.8c-2.8-0.1-5-1.1-6.7-3c-1.7-1.9-2.5-4.3-2.3-7.2c0.1-3.1,1.1-5.5,3-7.4
				c1.9-1.8,4.3-2.7,7.2-2.6c2.8,0.1,5,1.1,6.6,3c1.6,1.9,2.4,4.3,2.3,7.3c-0.1,3.1-1.1,5.5-3,7.3
				C184.5,229,182.1,229.9,179.3,229.8z M180.1,213.4c-1.5-0.1-2.8,0.5-3.7,1.6c-1,1.1-1.5,2.6-1.5,4.5c-0.1,1.9,0.3,3.5,1.2,4.6
				c0.9,1.2,2,1.8,3.5,1.8c1.5,0.1,2.7-0.4,3.7-1.5c0.9-1.1,1.4-2.5,1.5-4.5c0.1-2-0.3-3.6-1.1-4.8
				C182.8,214.1,181.6,213.5,180.1,213.4z"/>
			<path class="st10" d="M199.8,230.3l0.8-19.5l6.9,0.3c6.9,0.3,10.2,3.6,10,9.9c-0.1,3-1.2,5.4-3.1,7.1c-2,1.7-4.5,2.5-7.6,2.4
				L199.8,230.3z M204.8,214.5l-0.5,12.3l2.2,0.1c1.9,0.1,3.4-0.4,4.5-1.5c1.1-1.1,1.7-2.6,1.8-4.6c0.1-1.9-0.4-3.3-1.4-4.4
				c-1-1.1-2.5-1.7-4.4-1.8L204.8,214.5z"/>
			<path class="st10" d="M228.5,231.8c-2.8-0.1-5-1.1-6.7-3c-1.7-1.9-2.5-4.3-2.3-7.2c0.1-3.1,1.1-5.5,3-7.4
				c1.9-1.8,4.3-2.7,7.2-2.6c2.8,0.1,5,1.1,6.6,3c1.6,1.9,2.4,4.3,2.3,7.3c-0.1,3.1-1.1,5.5-3,7.3
				C233.7,231,231.4,231.9,228.5,231.8z M229.3,215.4c-1.5-0.1-2.8,0.5-3.7,1.6c-1,1.1-1.5,2.6-1.5,4.5c-0.1,1.9,0.3,3.5,1.2,4.6
				c0.9,1.2,2,1.8,3.5,1.8c1.5,0.1,2.7-0.4,3.7-1.5c0.9-1.1,1.4-2.5,1.5-4.5c0.1-2-0.3-3.6-1.1-4.8
				C232,216.1,230.8,215.5,229.3,215.4z"/>
			<path class="st10" d="M260.6,232.7l-11.6-0.5l0.8-19.5l4.4,0.2l-0.6,15.9l7.2,0.3L260.6,232.7z"/>
			<path class="st10" d="M270,213.6l-0.1,3.4l-1.6-0.1l-0.5,12.7l1.6,0.1l-0.1,3.4l-7.6-0.3l0.1-3.4l1.6,0.1l0.5-12.7l-1.6-0.1
				l0.1-3.4L270,213.6z"/>
			<path class="st10" d="M271.2,232.4l0.2-4.3c0.8,0.7,1.6,1.2,2.5,1.6c0.9,0.4,1.8,0.6,2.8,0.6c0.6,0,1,0,1.5-0.1
				c0.4-0.1,0.8-0.2,1-0.4c0.3-0.2,0.5-0.4,0.6-0.6c0.1-0.2,0.2-0.5,0.2-0.8c0-0.4-0.1-0.7-0.3-1c-0.2-0.3-0.5-0.6-0.9-0.9
				c-0.4-0.3-0.8-0.5-1.3-0.8c-0.5-0.3-1.1-0.5-1.6-0.8c-1.5-0.7-2.6-1.5-3.3-2.5c-0.7-0.9-1-2.1-1-3.4c0-1,0.3-1.9,0.7-2.6
				c0.4-0.7,1-1.3,1.7-1.7c0.7-0.4,1.5-0.8,2.5-0.9c0.9-0.2,1.9-0.3,2.9-0.2c1,0,1.9,0.1,2.7,0.3c0.8,0.2,1.5,0.4,2.1,0.7l-0.2,4.1
				c-0.3-0.2-0.7-0.5-1-0.6c-0.4-0.2-0.8-0.3-1.2-0.5c-0.4-0.1-0.8-0.2-1.2-0.3c-0.4-0.1-0.8-0.1-1.1-0.1c-0.5,0-1,0-1.4,0.1
				c-0.4,0.1-0.8,0.2-1,0.4c-0.3,0.2-0.5,0.4-0.7,0.6c-0.2,0.2-0.3,0.5-0.3,0.8c0,0.3,0.1,0.6,0.2,0.9c0.2,0.3,0.4,0.5,0.7,0.8
				c0.3,0.2,0.7,0.5,1.1,0.7c0.4,0.2,0.9,0.5,1.5,0.7c0.8,0.4,1.4,0.7,2.1,1.1c0.6,0.4,1.1,0.8,1.5,1.3c0.4,0.5,0.7,1,1,1.6
				c0.2,0.6,0.3,1.3,0.3,2.1c0,1.1-0.3,2-0.7,2.7c-0.4,0.7-1,1.3-1.7,1.7c-0.7,0.4-1.6,0.7-2.5,0.9c-0.9,0.2-1.9,0.2-3,0.2
				c-1.1,0-2.1-0.2-3-0.4C272.7,233.1,271.9,232.8,271.2,232.4z"/>
			<path class="st10" d="M301.9,218.4l-5.6-0.2l-0.6,15.9l-4.4-0.2L292,218l-5.5-0.2l0.1-3.6l15.5,0.6L301.9,218.4z"/>
		</g>
		<path class="st10" d="M186.7,361.4l-1.1,28.5l-28.5-1.1l1.1-28.5L186.7,361.4 M191.7,356.7l-4.8-0.2l-28.5-1.1l-4.8-0.2l-0.2,4.8
			l-1.1,28.5l-0.2,4.8l4.8,0.2l28.5,1.1l4.8,0.2l0.2-4.8l1.1-28.5L191.7,356.7L191.7,356.7z"/>
		<path class="st10" d="M189.2,255.2l-2.8-3.1c-0.3-0.3-0.7-0.3-1-0.1l-12,10.8l-5.7-6.2c-0.3-0.3-0.7-0.3-1-0.1l-3.1,2.8
			c-0.3,0.3-0.3,0.7-0.1,1l9.1,9.7c0.3,0.3,0.7,0.3,1,0.1l2.2-2c0,0,0,0,0,0l0.3-0.3l0.5-0.5c0,0,0,0,0,0l12.5-11.2
			C189.4,255.9,189.4,255.5,189.2,255.2z"/>
		
			<rect x="214.5" y="253" transform="matrix(0.9992 4.010340e-02 -4.010340e-02 0.9992 10.4422 -10.2576)" class="st10" width="92.9" height="4.4"/>
		
			<rect x="209.9" y="367.8" transform="matrix(0.9992 4.010340e-02 -4.010340e-02 0.9992 15.0438 -9.9804)" class="st10" width="92.9" height="4.4"/>
		
			<rect x="209.5" y="377.5" transform="matrix(0.9992 4.010340e-02 -4.010340e-02 0.9992 15.4347 -9.9569)" class="st10" width="92.9" height="4.4"/>
		
			<rect x="209.1" y="387.3" transform="matrix(0.9992 4.010340e-02 -4.010340e-02 0.9992 15.8257 -9.9333)" class="st10" width="92.9" height="4.4"/>
		
			<rect x="214.1" y="262.7" transform="matrix(0.9992 4.010340e-02 -4.010340e-02 0.9992 10.8332 -10.2341)" class="st10" width="92.9" height="4.4"/>
		
			<rect x="213.7" y="272.5" transform="matrix(0.9992 4.010340e-02 -4.010340e-02 0.9992 11.2242 -10.2105)" class="st10" width="92.9" height="4.4"/>
		
			<rect x="212.2" y="310.7" transform="matrix(0.9992 4.010341e-02 -4.010341e-02 0.9992 12.7548 -10.1183)" class="st10" width="92.9" height="4.4"/>
		
			<rect x="211.8" y="320.4" transform="matrix(0.9992 4.010340e-02 -4.010340e-02 0.9992 13.1457 -10.0947)" class="st10" width="92.9" height="4.4"/>
		
			<rect x="211.4" y="330.2" transform="matrix(0.9992 4.010340e-02 -4.010340e-02 0.9992 13.5367 -10.0712)" class="st10" width="92.9" height="4.4"/>
		<path class="st10" d="M191.3,246.5l-1.1,28.5l-28.5-1.1l1.1-28.5L191.3,246.5 M196.3,241.9l-4.8-0.2l-28.5-1.1l-4.8-0.2l-0.2,4.8
			l-1.1,28.5l-0.2,4.8l4.8,0.2l28.5,1.1l4.8,0.2l0.2-4.8l1.1-28.5L196.3,241.9L196.3,241.9z"/>
		<path class="st10" d="M186.9,312.9l-2.8-3.1c-0.3-0.3-0.7-0.3-1-0.1l-12,10.8l-5.7-6.2c-0.3-0.3-0.7-0.3-1-0.1l-3.1,2.8
			c-0.3,0.3-0.3,0.7-0.1,1l9.1,9.7c0.3,0.3,0.7,0.3,1,0.1l2.2-2c0,0,0,0,0,0l0.3-0.3l0.5-0.5c0,0,0,0,0,0l12.5-11.2
			C187.1,313.6,187.1,313.2,186.9,312.9z"/>
		<path class="st10" d="M189,304.2l-1.1,28.5l-28.5-1.1l1.1-28.5L189,304.2 M194,299.6l-4.8-0.2l-28.5-1.1l-4.8-0.2l-0.2,4.8
			l-1.1,28.5l-0.2,4.8l4.8,0.2l28.5,1.1l4.8,0.2l0.2-4.8l1.1-28.5L194,299.6L194,299.6z"/>
	</g>
	<path class="st4" d="M122.7,342.4c2.2-2.2,10.1-11.7,13.7-22l7.8-21c0,0,2.9-6.9,10.6-7.4c0.4,0,0.7,0,1.1,0.1
		c2,0.3,9,1.8,12.2,8.4c0.4,0.7,0.5,1.6,0.5,2.4c0,1.8-0.5,5.6-3.2,12.2l-20.7,57.3c0,0-5.9,14.2-12.6,22.7
		c-0.1,0.1-0.2,0.3-0.3,0.4c-0.9,1.4-6,9.1-9.3,12.3c-0.5,0.5-1,1.2-1.3,1.9l-3.5,8.5c-0.1,0.1-0.2,0.2-0.4,0.2L72.1,400l2-5
		c0.5-1.2,0.5-2.5,0.1-3.8l-6.4-18.8l32.5-19.9c0.7-0.5,1.7-1.1,2.4-1.5C103.5,350.6,107.9,357.6,122.7,342.4z"/>
	<path class="st11" d="M159.3,313.8l-11.4-4.9c-1-0.4-1.4-1.5-1-2.5l2.8-6.2c0,0,2.5-4.8,9.1-2.9c0,0,5.4,1.8,5.8,7.4c0,0,0,2.3-2,6
		l-0.8,2C161.4,313.8,160.3,314.2,159.3,313.8z"/>
	<polygon class="st8" points="116.5,452.6 97.3,500 18.3,500 48.5,425.1 80,437.9 116.3,452.5 	"/>
	<polygon class="st9" points="116.3,452.5 97.1,500 54.9,500 80,437.9 	"/>
	<path class="st12" d="M51,428.1l61.7,24.9c4,1.6,8.6-0.3,10.2-4.3l7.8-19.3c1.6-4-0.3-8.6-4.3-10.2l-61.7-24.9
		c-4-1.6-8.6,0.3-10.2,4.3l-7.8,19.3C45,421.9,47,426.5,51,428.1z"/>
	<path class="st13" d="M302.7,277.7c0,0-22.6-2.7-23.1-1.8c-0.5,0.9,15.9,18.6,15.9,18.6l5.4-6.9L302.7,277.7z"/>
	<path class="st14" d="M288.2,276.3c0,0-8.6-1-8.8-0.5c-0.2,0.6,5.5,6.9,5.5,6.9L288.2,276.3z"/>
	<path class="st15" d="M302.6,277.6l98.4,42.5l-7.1,16.4l-98.4-42c0,0-0.9-2.7,1.5-3.2c0,0-1.5-2.4,1.5-3.3c0,0-1.4-2.3,1.5-3.8
		c0,0-1.4-2.2,1.2-3.2C301.2,281.1,299.9,279.5,302.6,277.6z"/>
	<path class="st4" d="M349.6,332.3c-2.2-1.8-10.5-9.5-14.9-18.5l-9.4-18.3c0,0-3.4-6-10.5-5.5c-0.3,0-0.6,0.1-1,0.2
		c-1.8,0.5-8,2.6-10.1,9c-0.2,0.7-0.3,1.5-0.2,2.2c0.2,1.7,1.1,5.1,4.2,10.8l25.1,49.9c0,0,6.9,12.3,14,19.3
		c0.1,0.1,0.2,0.2,0.3,0.3c1,1.1,6.5,7.6,9.8,10.2c0.6,0.4,1,0.9,1.3,1.5l4.1,7.4c0.1,0.1,0.2,0.2,0.4,0.1L402,379l-2.4-4.3
		c-0.6-1-0.8-2.2-0.5-3.4l3.8-17.8L371,339c-0.7-0.3-1.6-0.8-2.4-1.1C368,337.6,364.7,344.4,349.6,332.3z"/>
	<path class="st11" d="M313.1,310.2l9.8-5.7c0.8-0.5,1.1-1.6,0.6-2.4l-3.2-5.3c0,0-2.8-4.1-8.6-1.6c0,0-4.8,2.2-4.5,7.4
		c0,0,0.3,2,2.5,5.3l1,1.7C311.3,310.4,312.3,310.7,313.1,310.2z"/>
	<path class="st16" d="M411.7,324.7l-13.8-5.9l-7,16.4l13.8,5.9c5,2.1,10.6,0.2,12.5-4.4l0,0C419.2,332.2,416.7,326.8,411.7,324.7z"
		/>
	<path class="st12" d="M424.3,402.3l-53.4,29.4c-3.4,1.9-7.8,0.6-9.7-2.8l-9.2-16.7c-1.9-3.4-0.6-7.8,2.8-9.7l53.4-29.4
		c3.4-1.9,7.8-0.6,9.7,2.8l9.2,16.7C429,396,427.7,400.4,424.3,402.3z"/>
</g>
</svg>
